<svg width="354" height="377" viewBox="0 0 354 377" fill="none" xmlns="http://www.w3.org/2000/svg">
<path  d="M109.509 279.767C114.012 272.164 123.826 269.65 131.429 274.153C139.032 278.656 141.545 288.47 137.042 296.073L94.6868 367.589C90.1838 375.193 80.3699 377.706 72.7667 373.203C65.1636 368.7 62.6504 358.886 67.1534 351.283L109.509 279.767Z" fill="url(#paint0_linear_0_1)"/>
<path  d="M217.154 297.075C212.651 289.472 215.163 279.658 222.766 275.154C230.369 270.651 240.183 273.163 244.687 280.766L287.047 352.279C291.55 359.882 289.038 369.696 281.435 374.2C273.832 378.703 264.018 376.191 259.514 368.588L217.154 297.075Z" fill="url(#paint1_linear_0_1)"/>
<path  d="M160 17C160 7.61116 167.611 0 177 0C186.389 0 194 7.61116 194 17V41C194 50.3888 186.389 58 177 58C167.611 58 160 50.3888 160 41V17Z" fill="#4747B7"/>
<path  d="M0 75C0 50.6995 19.6995 31 44 31H310C334.301 31 354 50.6995 354 75V253C354 277.301 334.301 297 310 297H44C19.6995 297 0 277.301 0 253V75Z" fill="url(#paint2_linear_0_1)"/>
<path  d="M64.7804 190.2C67.9729 183.462 76.0229 180.588 82.7607 183.78L116.272 199.659C123.01 202.851 125.884 210.901 122.692 217.639C119.499 224.377 111.449 227.251 104.711 224.058L71.1999 208.18C64.4621 204.988 61.588 196.938 64.7804 190.2Z" fill="white"/>
<path  d="M160.477 140.608C166.604 144.856 168.129 153.267 163.881 159.394L122.297 219.387C118.049 225.514 109.639 227.038 103.511 222.791C97.3832 218.543 95.859 210.133 100.106 204.005L141.691 144.013C145.938 137.885 154.349 136.361 160.477 140.608Z" fill="white"/>
<path  d="M142.987 143.884C147.398 137.873 155.847 136.576 161.858 140.987L218.944 182.878C224.955 187.289 226.252 195.737 221.841 201.748C217.43 207.759 208.981 209.056 202.97 204.646L145.884 162.755C139.873 158.344 138.576 149.895 142.987 143.884Z" fill="white"/>
<path  d="M285.099 97.2264C291.01 101.77 292.12 110.245 287.576 116.157L221.634 201.958C217.091 207.87 208.616 208.979 202.704 204.436C196.792 199.893 195.683 191.417 200.226 185.505L266.168 99.704C270.712 93.7923 279.187 92.6831 285.099 97.2264Z" fill="white"/>
<defs>
<linearGradient id="paint0_linear_0_1" x1="170.393" y1="86.0848" x2="171.327" y2="367.383" gradientUnits="userSpaceOnUse">
<stop stop-color="#343488"/>
<stop offset="1" stop-color="#4646B5"/>
</linearGradient>
<linearGradient id="paint1_linear_0_1" x1="170.393" y1="86.0848" x2="171.327" y2="367.383" gradientUnits="userSpaceOnUse">
<stop stop-color="#343488"/>
<stop offset="1" stop-color="#4646B5"/>
</linearGradient>
<linearGradient id="paint2_linear_0_1" x1="14.5" y1="46" x2="342.5" y2="278" gradientUnits="userSpaceOnUse">
<stop stop-color="#8598FF"/>
<stop offset="1" stop-color="#615DFF"/>
</linearGradient>
</defs>
</svg>
